HIERARCHY
ROOT Hips
{
	OFFSET 0.000000 0.000000 0.000000
	CHANNELS 6 Xposition Yposition Zposition Xrotation Yrotation Zrotation
	JOINT LeftUpLeg_virtual
	{
		OFFSET 0.000000 0.000000 0.000000
		CHANNELS 3 Xrotation Yrotation Zrotation
		JOINT LeftUpLeg
		{
			OFFSET 13.026900 -6.336304 -1.092800
			CHANNELS 3 Xrotation Yrotation Zrotation
			JOINT LeftLeg
			{
				OFFSET 0.524474 -46.096886 9.782700
				CHANNELS 3 Xrotation Yrotation Zrotation
				JOINT LeftFoot
				{
					OFFSET -0.524474 -53.427422 -12.948200
					CHANNELS 3 Xrotation Yrotation Zrotation
					JOINT LeftToeBase
					{
						OFFSET 0.192200 -14.009700 16.364100
						CHANNELS 3 Xrotation Yrotation Zrotation
						JOINT LeftToe_End
						{
							OFFSET -1.784700 -0.561700 9.474800
							CHANNELS 3 Xrotation Yrotation Zrotation
							End Site
							{
								OFFSET 0 0 0
							}
						}
					}
				}
			}
		}
	}
	JOINT RightUpLeg_virtual
	{
		OFFSET 0.000000 0.000000 0.000000
		CHANNELS 3 Xrotation Yrotation Zrotation
		JOINT RightUpLeg
		{
			OFFSET -12.883000 -6.336304 -1.092800
			CHANNELS 3 Xrotation Yrotation Zrotation
			JOINT RightLeg
			{
				OFFSET -0.524587 -46.096825 9.782800
				CHANNELS 3 Xrotation Yrotation Zrotation
				JOINT RightFoot
				{
					OFFSET 0.524587 -53.427383 -12.948300
					CHANNELS 3 Xrotation Yrotation Zrotation
					JOINT RightToeBase
					{
						OFFSET -0.192200 -14.009700 16.364100
						CHANNELS 3 Xrotation Yrotation Zrotation
						JOINT RightToe_End
						{
							OFFSET 1.784700 -0.561700 9.474800
							CHANNELS 3 Xrotation Yrotation Zrotation
							End Site
							{
								OFFSET 0 0 0
							}
						}
					}
				}
			}
		}
	}
	JOINT Spine_virtual
	{
		OFFSET 0.000000 0.000000 0.000000
		CHANNELS 3 Xrotation Yrotation Zrotation
		JOINT Spine
		{
			OFFSET 0.072000 7.257294 -0.789700
			CHANNELS 3 Xrotation Yrotation Zrotation
			JOINT Spine1
			{
				OFFSET 0.000000 12.508769 -0.658067
				CHANNELS 3 Xrotation Yrotation Zrotation
				JOINT Spine1_split
				{
					OFFSET 0.000000 12.508769 -0.658067
					CHANNELS 3 Xrotation Yrotation Zrotation
					JOINT Spine2
					{
						OFFSET 0.000000 12.508769 -0.658067
						CHANNELS 3 Xrotation Yrotation Zrotation
						JOINT Neck_virtual
						{
							OFFSET 0.000000 0.000000 0.000000
							CHANNELS 3 Xrotation Yrotation Zrotation
							JOINT Neck
							{
								OFFSET 0.000000 14.033295 7.520400
								CHANNELS 3 Xrotation Yrotation Zrotation
								JOINT Head
								{
									OFFSET 0.000000 8.198502 5.703100
									CHANNELS 3 Xrotation Yrotation Zrotation
									JOINT HeadTop_End
									{
										OFFSET 0.000000 17.760803 13.332701
										CHANNELS 3 Xrotation Yrotation Zrotation
										End Site
										{
											OFFSET 0 0 0
										}
									}
								}
							}
						}
						JOINT LeftShoulder_virtual
						{
							OFFSET 0.000000 0.000000 0.000000
							CHANNELS 3 Xrotation Yrotation Zrotation
							JOINT LeftShoulder
							{
								OFFSET 6.292450 5.785301 -0.669000
								CHANNELS 3 Xrotation Yrotation Zrotation
								JOINT LeftShoulder_split
								{
									OFFSET 6.292450 5.785301 -0.669000
									CHANNELS 3 Xrotation Yrotation Zrotation
									JOINT LeftArm
									{
										OFFSET 13.907140 -6.093903 1.965100
										CHANNELS 3 Xrotation Yrotation Zrotation
										JOINT LeftForeArm
										{
											OFFSET 34.140198 0.000000 0.000000
											CHANNELS 3 Xrotation Yrotation Zrotation
											JOINT LeftHand
											{
												OFFSET 40.960209 0.000000 0.000000
												CHANNELS 3 Xrotation Yrotation Zrotation
												End Site
												{
													OFFSET 0 0 0
												}
											}
										}
									}
								}
							}
						}
						JOINT RightShoulder_virtual
						{
							OFFSET 0.000000 0.000000 0.000000
							CHANNELS 3 Xrotation Yrotation Zrotation
							JOINT RightShoulder
							{
								OFFSET -6.292450 5.785301 -0.669000
								CHANNELS 3 Xrotation Yrotation Zrotation
								JOINT RightShoulder_split
								{
									OFFSET -6.292450 5.785301 -0.669000
									CHANNELS 3 Xrotation Yrotation Zrotation
									JOINT RightArm
									{
										OFFSET -13.907140 -6.093903 1.965100
										CHANNELS 3 Xrotation Yrotation Zrotation
										JOINT RightForeArm
										{
											OFFSET -34.140198 0.000000 0.000000
											CHANNELS 3 Xrotation Yrotation Zrotation
											JOINT RightHand
											{
												OFFSET -40.960209 0.000000 0.000000
												CHANNELS 3 Xrotation Yrotation Zrotation
												End Site
												{
													OFFSET 0 0 0
												}
											}
										}
									}
								}
							}
						}
					}
				}
			}
		}
	}
}
MOTION
Frames: 5
Frame Time: 0.03333333
-0.841295 144.146240 11.372490 0.000000 0.000000 0.000000 9.720297 -38.867806 6.778299 -82.043030 -17.891641 22.750595 67.753414 -0.782692 1.208180 13.946043 2.748037 -1.487522 -4.964511 1.704328 -1.137967 0.000000 0.000000 0.000000 9.488937 -40.419523 6.106744 -117.635597 -38.849897 -4.431249 109.038643 11.660827 -15.566638 40.898684 5.992007 25.538711 9.092069 3.423238 -4.086159 0.000000 0.000000 0.000000 7.633090 -39.778209 4.336340 30.926987 -6.993976 -7.191524 11.317117 1.349065 -3.496409 0.420178 1.334568 1.113667 0.000000 0.000000 0.000000 11.315633 1.120368 -2.351651 -6.701202 18.232203 -14.608789 -26.136214 11.084896 3.361354 0.000000 0.000000 0.000000 12.950188 1.505678 -2.948826 11.880207 -10.656300 0.038625 0.251325 -3.817108 -4.212819 -54.466326 5.549095 1.077610 47.913818 -18.453026 31.289954 0.000000 0.000000 0.000000 14.118644 1.590282 -2.740986 17.533244 21.985955 -5.827179 0.017634 4.113632 3.196405 -33.602311 -13.675228 3.525230 -50.637964 49.940697 40.817303 0.000000 0.000000 0.000000 
-0.875469 144.152374 11.424061 0.000000 0.000000 0.000000 9.784585 -38.618238 6.733524 -82.165427 -17.754809 22.811843 67.743667 -0.704146 1.137981 14.029122 2.799018 -1.452912 -4.984676 1.704686 -1.160718 0.000000 0.000000 0.000000 9.568970 -40.358406 6.061884 -117.690293 -38.823079 -4.266340 109.117046 11.675131 -15.696608 40.966976 6.093077 25.673909 9.001696 3.428937 -4.078442 0.000000 0.000000 0.000000 7.691899 -39.691390 4.253114 30.852460 -7.067737 -7.201159 11.365993 1.292536 -3.502588 0.397130 1.427321 0.951172 0.000000 0.000000 0.000000 11.341498 1.096935 -2.366652 -6.903506 18.290070 -14.492610 -26.161081 11.080220 3.469702 0.000000 0.000000 0.000000 12.981403 1.472403 -2.903880 12.052364 -10.976421 0.883319 0.086991 -3.696655 -3.835599 -55.844617 4.791165 1.502733 47.886941 -18.637266 31.369150 0.000000 0.000000 0.000000 14.161407 1.517299 -2.745006 17.621707 21.680277 -6.250426 0.204769 4.250840 2.941854 -34.157052 -13.780818 3.202346 -50.835203 50.333088 40.986015 0.000000 0.000000 0.000000 
-0.859939 144.118347 11.444378 0.000000 0.000000 0.000000 9.812185 -38.158976 6.554027 -82.434216 -17.670106 22.823431 67.811149 -0.682922 1.120119 14.237796 2.808996 -1.316411 -4.994930 1.698347 -1.138417 0.000000 0.000000 0.000000 9.644334 -40.081773 5.887776 -117.800437 -38.811177 -4.018862 109.229485 11.661655 -15.886371 41.196607 6.249441 25.941142 8.806572 3.421471 -4.017625 0.000000 0.000000 0.000000 7.842311 -39.470540 4.137812 30.752145 -7.125711 -7.257855 11.389690 1.251378 -3.536247 0.297314 1.508772 0.921079 0.000000 0.000000 0.000000 11.406627 1.106246 -2.404911 -7.077573 18.254044 -14.291349 -26.336545 11.012965 3.646771 0.000000 0.000000 0.000000 13.013547 1.487804 -2.869137 12.330149 -11.442194 2.313464 0.205017 -3.305748 -3.711805 -57.409495 3.303920 2.232728 47.851400 -18.842351 31.376328 0.000000 0.000000 0.000000 14.195791 1.470231 -2.783061 17.891278 21.258182 -7.165052 0.374323 4.274282 2.986182 -35.099745 -14.059996 2.406126 -51.950084 51.189409 42.197797 0.000000 0.000000 0.000000 
-0.811193 144.060013 11.480312 0.000000 0.000000 0.000000 9.806508 -37.592272 6.270570 -82.817184 -17.655026 22.778978 67.949836 -0.726317 1.156461 14.549051 2.770714 -1.106963 -5.012711 1.686694 -1.074555 0.000000 0.000000 0.000000 9.693062 -39.682976 5.615033 -117.961574 -38.821351 -3.735739 109.366533 11.583899 -16.100124 41.460724 6.357296 26.264304 8.656648 3.400826 -3.910197 0.000000 0.000000 0.000000 8.069708 -39.177241 4.003309 30.635922 -7.160374 -7.347995 11.401753 1.223256 -3.580483 0.189282 1.523101 0.960130 0.000000 0.000000 0.000000 11.523032 1.144083 -2.457412 -7.204180 18.154334 -14.047278 -26.604844 10.907664 3.843410 0.000000 0.000000 0.000000 13.052852 1.533589 -2.851531 12.694850 -12.029685 4.096677 0.453294 -2.911153 -3.888185 -58.828535 1.355095 2.888426 47.731326 -18.833307 31.208046 0.000000 0.000000 0.000000 14.219376 1.453643 -2.843073 18.296837 20.806877 -8.415911 0.505198 4.201517 3.183772 -36.200351 -14.371572 1.366896 -53.643056 52.241528 44.089561 0.000000 0.000000 0.000000 
-0.748721 144.001434 11.534214 0.000000 0.000000 0.000000 9.777595 -36.983381 5.917970 -83.266338 -17.706398 22.689759 68.142420 -0.810521 1.233657 14.916899 2.689559 -0.844999 -5.070948 1.674166 -0.985310 0.000000 0.000000 0.000000 9.701538 -39.243439 5.293578 -118.193651 -38.837135 -3.465153 109.564512 11.422558 -16.290823 41.669792 6.355271 26.567361 8.682531 3.371775 -3.772441 0.000000 0.000000 0.000000 8.334759 -38.858473 3.851642 30.524662 -7.168541 -7.450335 11.421697 1.200929 -3.622673 0.103485 1.448945 1.003322 0.000000 0.000000 0.000000 11.672080 1.183431 -2.506621 -7.261591 18.019794 -13.822297 -26.889840 10.818778 4.011894 0.000000 0.000000 0.000000 13.116227 1.580216 -2.849921 13.126989 -12.681777 6.014973 0.698977 -2.704444 -4.197517 -59.964444 -0.935260 3.161890 47.575840 -18.554766 30.935938 0.000000 0.000000 0.000000 14.238007 1.456718 -2.899898 18.778377 20.462475 -9.800752 0.590749 4.116318 3.327449 -37.321653 -14.481794 0.326416 -55.463769 53.222712 46.167424 0.000000 0.000000 0.000000 
